<?xml version="1.0" encoding="iso-8859-1"?>
<!-- Generator: Adobe Illustrator 16.0.0, SVG Export Plug-In . SVG Version: 6.00 Build 0)  -->
<!DOCTYPE svg PUBLIC "-//W3C//DTD SVG 1.1//EN" "http://www.w3.org/Graphics/SVG/1.1/DTD/svg11.dtd">
<svg version="1.1" id="Indesign_1_" xmlns="http://www.w3.org/2000/svg" xmlns:xlink="http://www.w3.org/1999/xlink" x="0px"
	 y="0px" width="499.004px" height="486.004px" viewBox="6.998 11.998 499.004 486.004"
	 style="enable-background:new 6.998 11.998 499.004 486.004;" xml:space="preserve">
<g id="Frame_2_">
	<g>
		<rect x="6.998" y="11.998" style="fill:#EB43A3;" width="499.004" height="486.004"/>
	</g>
</g>
<g id="Background_2_">
	<g>
		<rect x="45.009" y="51.016" style="fill:#412534;" width="421.986" height="407.969"/>
	</g>
</g>
<g id="Shadow2_2_" style="opacity:0.302;">
	<g>
		<polygon points="367,140 347,230 199,151 186,244 161,357 306,459 467,459 467,213 		"/>
	</g>
</g>
<g id="Shadow_3_" style="opacity:0.302;">
	<g>
		<rect x="45.009" y="51.001" width="421.986" height="13.998"/>
	</g>
</g>
<g id="Id">
	<g>
		<path style="fill:#EB43A3;" d="M199.52,150.998v205.904h-37.576V150.998H199.52z"/>
		<path style="fill:#EB43A3;" d="M366.013,140v175.05c0,15.274,0.61,31.771,1.223,41.854h-33.604l-1.526-23.523h-0.611
			c-8.858,16.497-26.884,26.884-48.574,26.884c-35.438,0-63.543-30.243-63.543-76.067c-0.306-49.796,30.855-79.429,66.6-79.429
			c20.468,0,35.132,8.554,41.853,19.552h0.611V140H366.013z M328.438,270.143c0-3.056-0.307-6.722-0.917-9.776
			c-3.36-14.664-15.274-26.578-32.383-26.578c-24.135,0-37.575,21.384-37.575,49.185c0,27.188,13.44,47.046,37.271,47.046
			c15.274,0,28.717-10.387,32.382-26.578c0.917-3.359,1.224-7.025,1.224-10.997L328.438,270.143L328.438,270.143z"/>
	</g>
</g>
</svg>
