<?xml version="1.0" encoding="UTF-8" standalone="no"?>
<svg width="103px" height="80px" viewBox="0 0 103 80" version="1.1" xmlns="http://www.w3.org/2000/svg" xmlns:xlink="http://www.w3.org/1999/xlink" xmlns:sketch="http://www.bohemiancoding.com/sketch/ns">
    <!-- Generator: Sketch 3.3.2 (12043) - http://www.bohemiancoding.com/sketch -->
    <title>Back-end-icon</title>
    <desc>Created with Sketch.</desc>
    <defs></defs>
    <g id="Page-1" stroke="none" stroke-width="1" fill="none" fill-rule="evenodd" sketch:type="MSPage">
        <g id="sprites-app-services" sketch:type="MSLayerGroup" transform="translate(0.000000, -850.000000)">
            <g id="Page-1" sketch:type="MSShapeGroup">
                <g id="Artboard-1">
                    <g id="Back-end-icon" transform="translate(0.000000, 850.000000)">
                        <g id="New-Homepage">
                            <g id="Desktop-1440px--4">
                                <g id="Services">
                                    <g id="Service-Normal">
                                        <g id="Back-end">
                                            <g id="Group">
                                                <path d="M48.6361084,73.0624163 L48.6361084,67.5198086 M48.6361084,61.9775474 L48.6361084,50.8930249 M34.619886,67.5198086 L34.619886,56.4356325 L48.6361084,56.4356325 M34.619886,61.9775474 L23.4069082,61.9775474 M12.1939303,61.9775474 L17.8004192,61.9775474" id="Stroke-15" stroke="#003C58"></path>
                                                <path d="M59.8490863,69.8031344 L60.3395625,70.2909393 L60.3395625,64.7490244 L60.3395625,64.2612195 L59.8490863,64.2612195 L51.4393529,64.2612195 L51.4393529,65.2368293 L59.8490863,65.2368293 L59.3586101,64.7490244 L59.3586101,70.2909393 L59.3586101,70.7787441 L59.8490863,70.7787441 L71.0620642,70.7787441 L71.0620642,69.8031344 L59.8490863,69.8031344 L59.8490863,69.8031344 Z M76.6685531,69.8031344 L76.6685531,70.7787441 L82.2750421,70.7787441 L82.2750421,69.8031344 L76.6685531,69.8031344 L76.6685531,69.8031344 Z M87.881531,69.8031344 L87.881531,70.7787441 L96.2912644,70.7787441 L96.2912644,69.8031344 L87.881531,69.8031344 L87.881531,69.8031344 Z M74.3557849,61.9775474 L73.3748325,61.9775474 L73.3748325,67.5198086 L74.3557849,67.5198086 L74.3557849,61.9775474 L74.3557849,61.9775474 Z M9.3906858,76.8405924 L9.88116199,76.8405924 L9.88116199,76.3527875 L9.88116199,64.7490244 L8.90020961,64.7490244 L8.90020961,76.3527875 L9.3906858,75.8649826 L6.58744133,75.8649826 L6.58744133,76.8405924 L9.3906858,76.8405924 L9.3906858,76.8405924 Z" id="Stroke-24" fill="#003C58"></path>
                                                <path d="M99.0945089,74.038026 C101.18301,74.038026 102.878706,72.3614667 102.878706,70.2909393 C102.878706,68.2206856 101.182937,66.5441989 99.0945089,66.5441989 C97.0060807,66.5441989 95.3103121,68.2206856 95.3103121,70.2909393 C95.3103121,72.3614667 97.0060077,74.038026 99.0945089,74.038026 L99.0945089,74.038026 L99.0945089,74.038026 Z" id="Stroke-23" fill="#003C58"></path>
                                                <path d="M85.0782866,74.038026 C87.1667878,74.038026 88.8624834,72.3614667 88.8624834,70.2909393 C88.8624834,68.2206856 87.1667147,66.5441989 85.0782866,66.5441989 C82.9898584,66.5441989 81.2940897,68.2206856 81.2940897,70.2909393 C81.2940897,72.3614667 82.9897854,74.038026 85.0782866,74.038026 L85.0782866,74.038026 L85.0782866,74.038026 Z M85.0782866,68.4954184 C86.0857999,68.4954184 86.9005786,69.3009326 86.9005786,70.2909393 C86.9005786,71.2812577 86.0858352,72.0868065 85.0782866,72.0868065 C84.0707379,72.0868065 83.2559945,71.2812577 83.2559945,70.2909393 C83.2559945,69.3009326 84.0707732,68.4954184 85.0782866,68.4954184 L85.0782866,68.4954184 L85.0782866,68.4954184 Z" id="Stroke-21" fill="#003C58"></path>
                                                <path d="M73.8653087,74.038026 C75.9538099,74.038026 77.6495055,72.3614667 77.6495055,70.2909393 C77.6495055,68.2206856 75.9537368,66.5441989 73.8653087,66.5441989 C71.7768805,66.5441989 70.0811118,68.2206856 70.0811118,70.2909393 C70.0811118,72.3614667 71.7768075,74.038026 73.8653087,74.038026 L73.8653087,74.038026 L73.8653087,74.038026 Z" id="Stroke-19" fill="#003C58"></path>
                                                <path d="M73.8653087,62.9531571 C75.953839,62.9531571 77.6495055,61.2769161 77.6495055,59.2064168 C77.6495055,57.1359455 75.9538682,55.4600228 73.8653087,55.4600228 C71.7767491,55.4600228 70.0811118,57.1359455 70.0811118,59.2064168 C70.0811118,61.2769161 71.7767783,62.9531571 73.8653087,62.9531571 L73.8653087,62.9531571 L73.8653087,62.9531571 Z M73.8653087,57.4112423 C74.8730663,57.4112423 75.6876008,58.2163064 75.6876008,59.2064168 C75.6876008,60.1966312 74.8729618,61.0019376 73.8653087,61.0019376 C72.8576555,61.0019376 72.0430166,60.1966312 72.0430166,59.2064168 C72.0430166,58.2163064 72.857551,57.4112423 73.8653087,57.4112423 L73.8653087,57.4112423 L73.8653087,57.4112423 Z" id="Stroke-17" fill="#003C58"></path>
                                                <path d="M48.6361084,66.5441989 C47.6283507,66.5441989 46.8138163,65.7391348 46.8138163,64.7490244 C46.8138163,63.758706 47.6285597,62.9531571 48.6361084,62.9531571 C49.6436571,62.9531571 50.4584005,63.758706 50.4584005,64.7490244 C50.4584005,65.7391348 49.6438661,66.5441989 48.6361084,66.5441989 L48.6361084,66.5441989 L48.6361084,66.5441989 Z M48.6361084,61.0019376 C46.5476072,61.0019376 44.8519116,62.6784969 44.8519116,64.7490244 C44.8519116,66.8194957 46.5475489,68.4954184 48.6361084,68.4954184 C50.7246679,68.4954184 52.4203053,66.8194957 52.4203053,64.7490244 C52.4203053,62.6784969 50.7246096,61.0019376 48.6361084,61.0019376 L48.6361084,61.0019376 L48.6361084,61.0019376 Z" id="Stroke-4" fill="#003C58"></path>
                                                <path d="M34.619886,72.0868065 C33.6123374,72.0868065 32.797594,71.2812577 32.797594,70.2909393 C32.797594,69.3009326 33.6123727,68.4954184 34.619886,68.4954184 C35.6273994,68.4954184 36.4421781,69.3009326 36.4421781,70.2909393 C36.4421781,71.2812577 35.6274347,72.0868065 34.619886,72.0868065 L34.619886,72.0868065 L34.619886,72.0868065 Z M34.619886,66.5441989 C32.5314579,66.5441989 30.8356892,68.2206856 30.8356892,70.2909393 C30.8356892,72.3614667 32.5313848,74.038026 34.619886,74.038026 C36.7083873,74.038026 38.4040829,72.3614667 38.4040829,70.2909393 C38.4040829,68.2206856 36.7083142,66.5441989 34.619886,66.5441989 L34.619886,66.5441989 L34.619886,66.5441989 Z" id="Stroke-6" fill="#003C58"></path>
                                                <path d="M3.78419685,77.6287214 C2.77654369,77.6287214 1.96190476,76.8234149 1.96190476,75.8332005 C1.96190476,74.8430901 2.77643918,74.038026 3.78419685,74.038026 C4.79195452,74.038026 5.60648894,74.8430901 5.60648894,75.8332005 C5.60648894,76.8234149 4.79185002,77.6287214 3.78419685,77.6287214 L3.78419685,77.6287214 L3.78419685,77.6287214 Z M3.78419685,72.0868065 C1.69563732,72.0868065 0,73.7627292 0,75.8332005 C0,77.9036999 1.6956665,79.5799409 3.78419685,79.5799409 C5.87272721,79.5799409 7.56839371,77.9036999 7.56839371,75.8332005 C7.56839371,73.7627292 5.87275639,72.0868065 3.78419685,72.0868065 L3.78419685,72.0868065 L3.78419685,72.0868065 Z" id="Stroke-8" fill="#003C58"></path>
                                                <path d="M20.6036637,58.230807 C18.5152355,58.230807 16.8194668,59.9072938 16.8194668,61.9775474 C16.8194668,64.0480749 18.5151625,65.7246342 20.6036637,65.7246342 C22.6921649,65.7246342 24.3878605,64.0480749 24.3878605,61.9775474 C24.3878605,59.9072938 22.6920919,58.230807 20.6036637,58.230807 L20.6036637,58.230807 L20.6036637,58.230807 Z" id="Stroke-10" fill="#003C58"></path>
                                                <path d="M9.3906858,63.7734146 C8.38313712,63.7734146 7.56839371,62.9678658 7.56839371,61.9775474 C7.56839371,60.9875408 8.38317248,60.1820265 9.3906858,60.1820265 C10.3981991,60.1820265 11.2129779,60.9875408 11.2129779,61.9775474 C11.2129779,62.9678658 10.3982345,63.7734146 9.3906858,63.7734146 L9.3906858,63.7734146 L9.3906858,63.7734146 Z M9.3906858,58.230807 C7.30225762,58.230807 5.60648894,59.9072938 5.60648894,61.9775474 C5.60648894,64.0480749 7.3021846,65.7246342 9.3906858,65.7246342 C11.479187,65.7246342 13.1748827,64.0480749 13.1748827,61.9775474 C13.1748827,59.9072938 11.479114,58.230807 9.3906858,58.230807 L9.3906858,58.230807 L9.3906858,58.230807 Z" id="Stroke-12" fill="#003C58"></path>
                                                <path d="M48.6361084,77.6287214 C47.6284552,77.6287214 46.8138163,76.8234149 46.8138163,75.8332005 C46.8138163,74.8430901 47.6283507,74.038026 48.6361084,74.038026 C49.6438661,74.038026 50.4584005,74.8430901 50.4584005,75.8332005 C50.4584005,76.8234149 49.6437616,77.6287214 48.6361084,77.6287214 L48.6361084,77.6287214 L48.6361084,77.6287214 Z M48.6361084,72.0868065 C46.5475489,72.0868065 44.8519116,73.7627292 44.8519116,75.8332005 C44.8519116,77.9036999 46.5475781,79.5799409 48.6361084,79.5799409 C50.7246388,79.5799409 52.4203053,77.9036999 52.4203053,75.8332005 C52.4203053,73.7627292 50.7246679,72.0868065 48.6361084,72.0868065 L48.6361084,72.0868065 L48.6361084,72.0868065 Z" id="Stroke-14" fill="#003C58"></path>
                                                <path d="M24.5651658,25.2257739 C24.5651658,18.2938593 30.2518939,12.6723775 37.2703537,12.6723775 C38.6254988,12.6723775 39.9548301,12.8850707 41.2274433,13.2968567 L42.1177378,13.5849339 L42.4485922,12.7138846 C44.8789412,6.31543911 51.0861545,1.98828338 58.1187837,1.98828338 C67.3620699,1.98828338 74.8525843,9.39308799 74.8525843,18.5248336 C74.8525843,20.2460159 74.5860069,21.9313655 74.068397,23.5409292 L73.6629889,24.801589 L74.9937498,24.8136991 C81.9614973,24.8771067 87.5793142,30.4771905 87.5793142,37.3643652 C87.5793142,44.295983 81.8925357,49.9174151 74.8741263,49.9174151 L24.9914421,49.9174151 L24.9914421,50.8930249 L25.9723945,50.8930249 L25.9723945,49.9251651 L25.0027822,49.9140164 C19.6585403,49.8525676 15.3561573,45.5541556 15.3561573,40.2723204 C15.3561573,35.2062567 19.3263889,31.0124259 24.4169083,30.6545874 L25.6991301,30.5644536 L25.2733118,29.3582175 C24.8066396,28.0362528 24.5651658,26.6463797 24.5651658,25.2257739 L24.5651658,25.2257739 L24.5651658,25.2257739 Z M24.2785859,28.7082236 C18.1651703,29.1379666 13.3942525,34.1775773 13.3942525,40.2723204 C13.3942525,46.6260525 18.5643078,51.7913359 24.980102,51.8651055 L24.9914421,50.889561 L24.0104897,50.889561 L24.0104897,51.8686346 L24.9914421,51.8686346 L74.8741263,51.8686346 C82.9733975,51.8686346 89.541219,45.3762835 89.541219,37.3643652 C89.541219,29.4035336 83.0529424,22.9357378 75.0117004,22.8625613 L75.9370532,24.1353312 C76.5162035,22.3344012 76.8144891,20.4485872 76.8144891,18.5248336 C76.8144891,8.31280904 68.442953,0.0370638721 58.1187837,0.0370638721 C50.2649156,0.0370638721 43.3302274,4.87135494 40.6132776,12.024342 L41.8344265,11.4413699 C40.3671865,10.9666075 38.8331283,10.721158 37.2703537,10.721158 C29.1710244,10.721158 22.603261,17.2135666 22.603261,25.2257739 C22.603261,26.8680338 22.8826827,28.4763267 23.4221824,30.0045935 L24.2785859,28.7082236 L24.2785859,28.7082236 Z" id="Stroke-2" fill="#003C58"></path>
                                            </g>
                                        </g>
                                    </g>
                                </g>
                            </g>
                        </g>
                    </g>
                </g>
            </g>
        </g>
    </g>
</svg>