<?xml version="1.0" encoding="UTF-8" standalone="no"?>
<svg width="52px" height="80px" viewBox="0 0 52 80" version="1.1" xmlns="http://www.w3.org/2000/svg" xmlns:xlink="http://www.w3.org/1999/xlink" xmlns:sketch="http://www.bohemiancoding.com/sketch/ns">
    <!-- Generator: Sketch 3.3.2 (12043) - http://www.bohemiancoding.com/sketch -->
    <title>Emerging-Tech-Icon</title>
    <desc>Created with Sketch.</desc>
    <defs></defs>
    <g id="Page-1" stroke="none" stroke-width="1" fill="none" fill-rule="evenodd" sketch:type="MSPage">
        <g id="sprites-app-services" sketch:type="MSLayerGroup" transform="translate(-25.000000, -1119.000000)" fill="#003C58">
            <g id="Page-1" sketch:type="MSShapeGroup">
                <g id="Artboard-1">
                    <g id="Emerging-Tech-Icon" transform="translate(25.000000, 1119.000000)">
                        <g id="New-Homepage">
                            <g id="Desktop-1440px--4">
                                <g id="Services">
                                    <g id="Service-Normal">
                                        <g id="Emerging-Tech">
                                            <g id="Group">
                                                <path d="M8.53757675,9.25698264 L11.8812985,0 L35.4212681,0 L38.8032055,9.25698224 C35.792256,9.25698224 35.276694,9.25698264 31.1192773,9.25698264 L16.0645297,9.25698264 L8.53757675,9.25698264 L8.53757675,9.25698264 Z M8.53757675,70.7430174 L11.8812985,80 L35.4212681,80 L38.8032055,70.7430178 C35.792256,70.7430178 35.276694,70.7430174 31.1192773,70.7430174 L16.0645297,70.7430174 L8.53757675,70.7430174 L8.53757675,70.7430174 Z M49.8952261,34.3923218 C48.7346205,34.3923218 47.7912363,33.3561954 47.7912363,32.0776448 L47.7912363,27.4491535 C47.7912363,26.1714655 48.7338363,25.1344764 49.8952261,25.1344764 C51.0566159,25.1344764 52,26.1706028 52,27.4491535 L52,32.0776448 C51.9992158,33.3561954 51.0566159,34.3923218 49.8952261,34.3923218 L49.8952261,34.3923218 L49.8952261,34.3923218 Z M47.6393476,52.1945433 L47.6393476,53.5778698 L50.426269,53.5778698 L50.426269,52.1945433 L50.426269,40.9791869 L50.426269,39.5958604 L47.6393476,39.5958604 L47.6393476,40.9791869 L47.6393476,52.1945433 L47.6393476,52.1945433 Z M8.45592674,66.6119583 C4.81831712,66.6119583 1.85794764,63.5778498 1.85794764,59.8197362 L1.85794764,19.703269 C1.85794764,15.9451554 4.81831712,12.9110469 8.45592674,12.9110469 L38.5645802,12.9110469 C42.2021898,12.9110469 45.1625593,15.9451554 45.1625593,19.703269 L45.1625593,59.8197362 C45.1625593,63.5778498 42.2021898,66.6119583 38.5645802,66.6119583 L8.45592674,66.6119583 L8.45592674,66.6119583 Z M47.0205069,59.8197362 L47.0205069,19.703269 C47.0205069,14.9394372 43.241804,11.0666116 38.5645802,11.0666116 L8.45592674,11.0666116 C3.77870288,11.0666116 0,14.9394372 0,19.703269 L0,59.8197362 C0,64.583568 3.77870288,68.4563936 8.45592674,68.4563936 L38.5645802,68.4563936 C43.241804,68.4563936 47.0205069,64.583568 47.0205069,59.8197362 L47.0205069,59.8197362 L47.0205069,59.8197362 Z" id="Path"></path>
                                            </g>
                                        </g>
                                    </g>
                                </g>
                            </g>
                        </g>
                    </g>
                </g>
            </g>
        </g>
    </g>
</svg>