<?xml version="1.0" encoding="UTF-8" standalone="no"?>
<svg width="48px" height="82px" viewBox="0 0 48 82" version="1.1" xmlns="http://www.w3.org/2000/svg" xmlns:xlink="http://www.w3.org/1999/xlink" xmlns:sketch="http://www.bohemiancoding.com/sketch/ns">
    <!-- Generator: Sketch 3.3.2 (12043) - http://www.bohemiancoding.com/sketch -->
    <title>Mobile</title>
    <desc>Created with Sketch.</desc>
    <defs></defs>
    <g id="Page-1" stroke="none" stroke-width="1" fill="none" fill-rule="evenodd" sketch:type="MSPage">
        <g id="sprites-app-services" sketch:type="MSLayerGroup" transform="translate(-28.000000, -394.000000)">
            <g id="Page-1" sketch:type="MSShapeGroup">
                <g id="Artboard-1">
                    <g id="Mobile" transform="translate(29.000000, 395.000000)">
                        <path d="M45.383915,4.51501313 C45.383915,2.09674682 43.3537311,0.118165286 40.8723953,0.118165286 L4.78023716,0.118165286 C2.29890129,0.118165286 0.268717396,2.09674682 0.268717396,4.51501313 L0.268717396,74.8645787 C0.268717396,77.282845 2.29890129,79.2614266 4.78023716,79.2614266 L40.8723953,79.2614266 C43.3537311,79.2614266 45.383915,77.282845 45.383915,74.8645787 L45.383915,4.51501313 L45.383915,4.51501313 Z M0.268717396,68.2693069 L45.383915,68.2693069 L45.383915,11.1102849 L0.268717396,11.1102849 L0.268717396,68.2693069 L0.268717396,68.2693069 Z" id="Stroke-1" stroke="#003C58" stroke-width="2"></path>
                        <path d="M5.9081171,15.5071328 L12.6753967,15.5071328 L12.6753967,22.1024045 L5.9081171,22.1024045 L5.9081171,15.5071328 L5.9081171,15.5071328 Z" id="Path" fill="#003C58"></path>
                        <path d="M14.9311566,15.5071328 L21.6984363,15.5071328 L21.6984363,22.1024045 L14.9311566,22.1024045 L14.9311566,15.5071328 L14.9311566,15.5071328 Z" id="Path" fill="#003C58"></path>
                        <path d="M23.9541962,15.5071328 L30.7214758,15.5071328 L30.7214758,22.1024045 L23.9541962,22.1024045 L23.9541962,15.5071328 L23.9541962,15.5071328 Z" id="Path" fill="#003C58"></path>
                        <path d="M32.9772357,15.5071328 L39.7445153,15.5071328 L39.7445153,22.1024045 L32.9772357,22.1024045 L32.9772357,15.5071328 L32.9772357,15.5071328 Z" id="Path" fill="#003C58"></path>
                        <path d="M5.9081171,24.3008285 L12.6753967,24.3008285 L12.6753967,30.8961002 L5.9081171,30.8961002 L5.9081171,24.3008285 L5.9081171,24.3008285 Z" id="Path" fill="#003C58"></path>
                        <path d="M14.9311566,24.3008285 L21.6984363,24.3008285 L21.6984363,30.8961002 L14.9311566,30.8961002 L14.9311566,24.3008285 L14.9311566,24.3008285 Z" id="Path" fill="#003C58"></path>
                        <path d="M23.9541962,24.3008285 L30.7214758,24.3008285 L30.7214758,30.8961002 L23.9541962,30.8961002 L23.9541962,24.3008285 L23.9541962,24.3008285 Z" id="Path" fill="#003C58"></path>
                        <path d="M32.9772357,24.3008285 L39.7445153,24.3008285 L39.7445153,30.8961002 L32.9772357,30.8961002 L32.9772357,24.3008285 L32.9772357,24.3008285 Z" id="Path" fill="#003C58"></path>
                        <path d="M5.9081171,33.0945241 L12.6753967,33.0945241 L12.6753967,39.6897959 L5.9081171,39.6897959 L5.9081171,33.0945241 L5.9081171,33.0945241 Z" id="Path" fill="#003C58"></path>
                        <path d="M14.9311566,33.0945241 L21.6984363,33.0945241 L21.6984363,39.6897959 L14.9311566,39.6897959 L14.9311566,33.0945241 L14.9311566,33.0945241 Z" id="Path" fill="#003C58"></path>
                        <path d="M23.9541962,33.0945241 L30.7214758,33.0945241 L30.7214758,39.6897959 L23.9541962,39.6897959 L23.9541962,33.0945241 L23.9541962,33.0945241 Z" id="Path" fill="#003C58"></path>
                        <path d="M32.9772357,33.0945241 L39.7445153,33.0945241 L39.7445153,39.6897959 L32.9772357,39.6897959 L32.9772357,33.0945241 L32.9772357,33.0945241 Z" id="Path" fill="#003C58"></path>
                        <path d="M5.9081171,41.8882198 L12.6753967,41.8882198 L12.6753967,48.4834916 L5.9081171,48.4834916 L5.9081171,41.8882198 L5.9081171,41.8882198 Z" id="Path" fill="#003C58"></path>
                        <path d="M14.9311566,41.8882198 L21.6984363,41.8882198 L21.6984363,48.4834916 L14.9311566,48.4834916 L14.9311566,41.8882198 L14.9311566,41.8882198 Z" id="Path" fill="#003C58"></path>
                        <path d="M23.9541962,41.8882198 L30.7214758,41.8882198 L30.7214758,48.4834916 L23.9541962,48.4834916 L23.9541962,41.8882198 L23.9541962,41.8882198 Z" id="Path" fill="#003C58"></path>
                        <path d="M32.9772357,41.8882198 L39.7445153,41.8882198 L39.7445153,48.4834916 L32.9772357,48.4834916 L32.9772357,41.8882198 L32.9772357,41.8882198 Z" id="Path" fill="#003C58"></path>
                        <path d="M5.9081171,57.2771873 L12.6753967,57.2771873 L12.6753967,63.8724591 L5.9081171,63.8724591 L5.9081171,57.2771873 L5.9081171,57.2771873 Z" id="Path" fill="#003C58"></path>
                        <path d="M14.9311566,57.2771873 L21.6984363,57.2771873 L21.6984363,63.8724591 L14.9311566,63.8724591 L14.9311566,57.2771873 L14.9311566,57.2771873 Z" id="Path" fill="#003C58"></path>
                        <path d="M32.9772357,57.2771873 L39.7445153,57.2771873 L39.7445153,63.8724591 L32.9772357,63.8724591 L32.9772357,57.2771873 L32.9772357,57.2771873 Z" id="Path" fill="#003C58"></path>
                        <path d="M23.9541962,57.2771873 L30.7214758,57.2771873 L30.7214758,63.8724591 L23.9541962,63.8724591 L23.9541962,57.2771873 L23.9541962,57.2771873 Z" id="Path" fill="#003C58"></path>
                        <path d="M26.209956,73.7653667 C26.209956,75.5864862 24.6949313,77.0630026 22.8263162,77.0630026 C20.9577011,77.0630026 19.4426764,75.5864862 19.4426764,73.7653667 C19.4426764,71.9442473 20.9577011,70.4677309 22.8263162,70.4677309 C24.6949313,70.4677309 26.209956,71.9442473 26.209956,73.7653667 L26.209956,73.7653667 L26.209956,73.7653667 Z" id="Path" stroke="#003C58"></path>
                        <path d="M18.3147964,6.71343706 L27.337836,6.71343706 L18.3147964,6.71343706 L18.3147964,6.71343706 Z M20.5705563,4.51501313 L25.0820761,4.51501313 L20.5705563,4.51501313 L20.5705563,4.51501313 Z" id="Stroke-2" stroke="#003C58"></path>
                    </g>
                </g>
            </g>
        </g>
    </g>
</svg>