<?xml version="1.0" encoding="UTF-8" standalone="no"?>
<svg width="96px" height="72px" viewBox="0 0 96 72" version="1.1" xmlns="http://www.w3.org/2000/svg" xmlns:xlink="http://www.w3.org/1999/xlink" xmlns:sketch="http://www.bohemiancoding.com/sketch/ns">
    <!-- Generator: Sketch 3.3.2 (12043) - http://www.bohemiancoding.com/sketch -->
    <title>Strategy-Icon</title>
    <desc>Created with Sketch.</desc>
    <defs></defs>
    <g id="Page-1" stroke="none" stroke-width="1" fill="none" fill-rule="evenodd" sketch:type="MSPage">
        <g id="sprites-app-services" sketch:type="MSLayerGroup" transform="translate(-4.000000, 0.000000)" fill="#003C58">
            <g id="Page-1" sketch:type="MSShapeGroup">
                <g id="Artboard-1">
                    <g id="Strategy-Icon" transform="translate(4.000000, 0.000000)">
                        <g id="New-Homepage">
                            <g id="Desktop-1440px--4">
                                <g id="Services">
                                    <g id="Service-Normal">
                                        <g id="Strategy">
                                            <g id="Strategy-Icon">
                                                <path d="M15.4835251,19.9685603 L9.25946774,13.9152931 L10.7168197,12.4979314 L15.4835251,17.1341708 L25.7461271,7.15317804 L27.2034791,8.57053981 L15.4835251,19.9685603" id="Fill-17"></path>
                                                <path d="M15.4835251,36.5038909 L9.25946774,30.4506237 L10.7168197,29.0332619 L15.4835251,33.6695014 L25.7461271,23.6885086 L27.2034791,25.1058704 L15.4835251,36.5038909" id="Fill-18"></path>
                                                <path d="M67.0043355,35.6108108 L67.0043355,34.6378378 L28.5354637,34.6378378 L28.5354637,35.6108108 L67.0043355,35.6108108 L67.0043355,35.6108108 Z" id="Stroke-12"></path>
                                                <path d="M67.0043355,14.5945946 L67.0043355,13.6216216 L28.5354637,13.6216216 L28.5354637,14.5945946 L67.0043355,14.5945946 L67.0043355,14.5945946 Z" id="Stroke-5"></path>
                                                <path d="M67.0043355,19.8486486 L67.0043355,18.8756757 L28.5354637,18.8756757 L28.5354637,19.8486486 L67.0043355,19.8486486 L67.0043355,19.8486486 Z" id="Stroke-7"></path>
                                                <path d="M67.0043355,30.3567568 L67.0043355,29.3837838 L28.5354637,29.3837838 L28.5354637,30.3567568 L67.0043355,30.3567568 L67.0043355,30.3567568 Z" id="Stroke-9"></path>
                                                <path d="M23.0399106,12.9244033 L22.0502199,11.9514303 L22.0502199,22.640937 L23.0399106,21.667964 L12.0488044,21.667964 L13.0384951,22.640937 L13.0384951,11.9514303 L12.0488044,12.9244033 L23.0399106,12.9244033 L23.0399106,12.9244033 Z M11.0591137,10.9784574 L11.0591137,11.9514303 L11.0591137,22.640937 L11.0591137,23.6139099 L12.0488044,23.6139099 L23.0399106,23.6139099 L24.0296014,23.6139099 L24.0296014,22.640937 L24.0296014,11.9514303 L24.0296014,10.9784574 L23.0399106,10.9784574 L12.0488044,10.9784574 L11.0591137,10.9784574 L11.0591137,10.9784574 Z" id="Path"></path>
                                                <path d="M23.0399106,28.9586632 L22.0502199,27.9856903 L22.0502199,38.6751969 L23.0399106,37.7022239 L12.0488044,37.7022239 L13.0384951,38.6751969 L13.0384951,27.9856903 L12.0488044,28.9586632 L23.0399106,28.9586632 L23.0399106,28.9586632 Z M11.0591137,27.0127173 L11.0591137,27.9856903 L11.0591137,38.6751969 L11.0591137,39.6481699 L12.0488044,39.6481699 L23.0399106,39.6481699 L24.0296014,39.6481699 L24.0296014,38.6751969 L24.0296014,27.9856903 L24.0296014,27.0127173 L23.0399106,27.0127173 L12.0488044,27.0127173 L11.0591137,27.0127173 L11.0591137,27.0127173 Z" id="Path"></path>
                                                <path d="M11.3875459,45.5351351 L11.3875459,46.5081081 L11.3875459,65.3989635 L11.3875459,66.3719364 L12.3772366,66.3719364 L67.0043355,66.3719364 L67.9940262,66.3719364 L67.9940262,65.3989635 L67.9940262,46.5081081 L67.9940262,45.5351351 L67.0043355,45.5351351 L12.3772366,45.5351351 L11.3875459,45.5351351 L11.3875459,45.5351351 Z" id="Stroke-10"></path>
                                                <path d="M1.05804166,69.7707438 L2.04773239,70.7437168 L2.04773239,1.2619237 L1.05804166,2.23489667 L77.9954417,2.23489667 L77.2994095,1.95362032 L93.7860688,17.9878803 L93.4924104,17.2961836 L93.4924104,70.7437168 L94.4821011,69.7707438 L1.05804166,69.7707438 L1.05804166,69.7707438 Z M95.4717918,71.7166897 L95.4717918,70.7437168 L95.4717918,17.2961836 L95.4717918,16.8900874 L95.1781333,16.604487 L78.691474,0.570227076 L78.4022615,0.288950726 L77.9954417,0.288950726 L1.05804166,0.288950726 L0.0683509418,0.288950726 L0.0683509418,1.2619237 L0.0683509418,70.7437168 L0.0683509418,71.7166897 L1.05804166,71.7166897 L94.4821011,71.7166897 L95.4717918,71.7166897 L95.4717918,71.7166897 Z" id="Stroke-1"></path>
                                            </g>
                                        </g>
                                    </g>
                                </g>
                            </g>
                        </g>
                    </g>
                </g>
            </g>
        </g>
    </g>
</svg>