<?xml version="1.0" encoding="UTF-8" standalone="no"?>
<svg width="70px" height="80px" viewBox="0 0 70 80" version="1.1" xmlns="http://www.w3.org/2000/svg" xmlns:xlink="http://www.w3.org/1999/xlink" xmlns:sketch="http://www.bohemiancoding.com/sketch/ns">
    <!-- Generator: Sketch 3.3.2 (12043) - http://www.bohemiancoding.com/sketch -->
    <title>UX-Icon</title>
    <desc>Created with Sketch.</desc>
    <defs></defs>
    <g id="Page-1" stroke="none" stroke-width="1" fill="none" fill-rule="evenodd" sketch:type="MSPage">
        <g id="sprites-app-services" sketch:type="MSLayerGroup" transform="translate(-16.000000, -199.000000)" fill="#003C58">
            <g id="Page-1" sketch:type="MSShapeGroup">
                <g id="Artboard-1">
                    <g id="UX-Icon" transform="translate(18.000000, 199.000000)">
                        <g id="New-Homepage">
                            <g id="Desktop-1440px--4">
                                <g id="Services">
                                    <g id="Service-Normal">
                                        <g id="User-Experience">
                                            <g id="UX-Icon">
                                                <path d="M67.1620228,26.6146739 C67.1620228,11.9175959 55.3728763,0 40.8241527,0 C26.275429,0 14.4862825,11.9175959 14.4862825,26.6146739 C14.4862825,27.795198 14.5689644,28.9849705 14.7298592,30.1924627 L14.7804469,29.768186 L8.48876604,45.999528 L8.03396078,47.1728392 L9.29302573,47.1704719 L16.2921567,47.1573117 L15.4330822,46.3724019 L16.8610008,62.6110166 L16.9300208,63.3959279 L17.7184558,63.3959279 L31.8188097,63.3959279 L30.9754857,62.707974 L34.2307839,78.6245107 L34.4345665,79.6208907 L35.3839671,79.2547948 L65.4511099,67.6606822 L66.1221516,67.4019236 L65.9865822,66.6960003 L63.0080974,51.1867362 L63.0089254,51.5066371 L66.5794072,32.3807496 L66.760738,31.4094208 L65.7730835,31.3636923 L65.6883683,32.2209077 L66.5290604,32.4055711 C66.9475577,30.5027444 67.1620228,28.5667821 67.1620228,26.6146739 L67.1620228,26.6146739 L67.1620228,26.6146739 Z M64.6284614,33.0329716 L65.6485325,33.080201 L65.7332477,32.2229856 L64.8870882,32.0652216 L61.3166064,51.1911091 L61.3174345,51.5110099 L64.2959193,67.020274 L64.8313915,66.055592 L34.7642488,77.6497046 L35.917432,78.2799886 L32.6621338,62.3634518 L32.5214314,61.6754978 L31.8188097,61.6754978 L17.7184558,61.6754978 L18.5759108,62.4604092 L17.1479922,46.2217945 L17.0788417,45.4353994 L16.2889177,45.4368846 L9.28978679,45.4500448 L10.0940465,46.6209886 L16.3857273,30.3896467 L16.4654453,30.1839893 C16.2852244,28.8314568 16.2078015,27.7173608 16.2078015,26.6146739 C16.2078015,12.8633742 27.2306455,1.72043011 40.8241527,1.72043011 C54.4176598,1.72043011 65.4405038,12.8633742 65.4405038,26.6146739 C65.4405038,28.4413622 65.2397485,30.2535674 64.8476762,32.0362443 L64.6284614,33.0329716 L64.6284614,33.0329716 Z" id="Imported-Layers"></path>
                                                <path d="M8.22218024,6.40965228 L0,14.7213406 L8.22218024,23.0333752 L8.22218024,17.4919034 L41.1109012,17.4919034 C45.6522854,17.4919034 49.3330814,21.2127692 49.3330814,25.8035917 C49.3330814,30.3944142 45.6522854,34.11528 41.1109012,34.11528 C36.569517,34.11528 32.888721,30.3944142 32.888721,25.8035917 L27.4072675,25.8035917 C27.4072675,33.4545008 33.5423843,39.6564055 41.1109012,39.6564055 C48.6794181,39.6564055 54.8145349,33.4545008 54.8145349,25.8035917 C54.8145349,18.1526826 48.6794181,11.9507778 41.1109012,11.9507778 L8.22218024,11.9507778 L8.22218024,6.40965228 L8.22218024,6.40965228 Z" id="Path" stroke="#003C58" stroke-width="2"></path>
                                            </g>
                                        </g>
                                    </g>
                                </g>
                            </g>
                        </g>
                    </g>
                </g>
            </g>
        </g>
    </g>
</svg>