<?xml version="1.0" encoding="UTF-8" standalone="no"?>
<svg width="90px" height="80px" viewBox="0 0 90 80" version="1.1" xmlns="http://www.w3.org/2000/svg" xmlns:xlink="http://www.w3.org/1999/xlink" xmlns:sketch="http://www.bohemiancoding.com/sketch/ns">
    <!-- Generator: Sketch 3.3.2 (12043) - http://www.bohemiancoding.com/sketch -->
    <title>Web-Development-Icon</title>
    <desc>Created with Sketch.</desc>
    <defs></defs>
    <g id="Page-1" stroke="none" stroke-width="1" fill="none" fill-rule="evenodd" sketch:type="MSPage">
        <g id="sprites-app-services" sketch:type="MSLayerGroup" transform="translate(-7.000000, -611.000000)" fill="#003C58">
            <g id="Page-1" sketch:type="MSShapeGroup">
                <g id="Artboard-1">
                    <g id="Web-Development-Icon" transform="translate(7.000000, 611.000000)">
                        <g id="New-Homepage">
                            <g id="Desktop-1440px--4">
                                <g id="Services">
                                    <g id="Service-Normal">
                                        <g id="Web-Development">
                                            <g id="Web-Development-Icon">
                                                <path d="M78.3452381,39.5061728 L78.3452381,38.5185185 L28,38.5185185 L28,39.5061728 L78.3452381,39.5061728 L78.3452381,39.5061728 Z M28,39.5061728 L78.3452381,39.5061728 L78.3452381,38.5185185 L28,38.5185185 L28,39.5061728 L28,39.5061728 Z" id="Path"></path>
                                                <path d="M34.7534014,10.8641975 L34.7534014,9.87654321 L9.99999999,9.87654321 L9.99999999,10.8641975 L34.7534014,10.8641975 L34.7534014,10.8641975 Z M9.99999999,10.8641975 L34.7534014,10.8641975 L34.7534014,9.87654321 L9.99999999,9.87654321 L9.99999999,10.8641975 L9.99999999,10.8641975 Z" id="Path"></path>
                                                <path d="M63.8146259,15.8024691 L63.8146259,14.8148148 L18,14.8148148 L18,15.8024691 L63.8146259,15.8024691 L63.8146259,15.8024691 Z M18,15.8024691 L63.8146259,15.8024691 L63.8146259,14.8148148 L18,14.8148148 L18,15.8024691 L18,15.8024691 Z" id="Path"></path>
                                                <path d="M78.3452381,15.8024691 L78.3452381,14.8148148 L68,14.8148148 L68,15.8024691 L78.3452381,15.8024691 L78.3452381,15.8024691 Z M68,15.8024691 L78.3452381,15.8024691 L78.3452381,14.8148148 L68,14.8148148 L68,15.8024691 L68,15.8024691 Z" id="Path"></path>
                                                <path d="M73.5017007,20.7407407 L73.5017007,19.7530864 L29,19.7530864 L29,20.7407407 L73.5017007,20.7407407 L73.5017007,20.7407407 Z M29,20.7407407 L73.5017007,20.7407407 L73.5017007,19.7530864 L29,19.7530864 L29,20.7407407 L29,20.7407407 Z" id="Path"></path>
                                                <path d="M34.7534014,29.6296296 L34.7534014,28.6419753 L8.99999999,28.6419753 L8.99999999,29.6296296 L34.7534014,29.6296296 L34.7534014,29.6296296 Z M8.99999999,29.6296296 L34.7534014,29.6296296 L34.7534014,28.6419753 L8.99999999,28.6419753 L8.99999999,29.6296296 L8.99999999,29.6296296 Z" id="Path"></path>
                                                <path d="M44.4404762,34.5679012 L44.4404762,33.5802469 L18,33.5802469 L18,34.5679012 L44.4404762,34.5679012 L44.4404762,34.5679012 Z M18,34.5679012 L44.4404762,34.5679012 L44.4404762,33.5802469 L18,33.5802469 L18,34.5679012 L18,34.5679012 Z" id="Path"></path>
                                                <path d="M54.127551,34.5679012 L54.127551,33.5802469 L48,33.5802469 L48,34.5679012 L54.127551,34.5679012 L54.127551,34.5679012 Z M48,34.5679012 L54.127551,34.5679012 L54.127551,33.5802469 L48,33.5802469 L48,34.5679012 L48,34.5679012 Z" id="Path"></path>
                                                <path d="M73.5017007,34.5679012 L73.5017007,33.5802469 L58,33.5802469 L58,34.5679012 L73.5017007,34.5679012 L73.5017007,34.5679012 Z M58,34.5679012 L73.5017007,34.5679012 L73.5017007,33.5802469 L58,33.5802469 L58,34.5679012 L58,34.5679012 Z" id="Path"></path>
                                                <path d="M48.4332404,56.8283805 L47.7189622,56.1275972 L45.2965881,53.750989 L44.5916605,53.0593797 L43.8869081,53.7511631 L41.4657448,56.1277713 L40.752001,56.8283805 L41.4658335,57.5289017 L43.8869967,59.9049158 L44.5916605,60.5964392 L45.2964994,59.9050898 L47.7188735,57.5290757 L48.4332404,56.8283805 L48.4332404,56.8283805 Z" id="Path"></path>
                                                <path d="M0,0.987654321 L0,50.8901884 C0,51.4356549 0.44771525,51.8778428 1,51.8778428 L88.1836735,51.8778428 C88.7359582,51.8778428 89.1836735,51.4356549 89.1836735,50.8901884 L89.1836735,0.987654321 C89.1836735,0.442187901 88.7359582,0 88.1836735,0 L1,0 C0.44771525,0 0,0.442187901 0,0.987654321 L0,0.987654321 L0,0.987654321 Z M84.5510204,48.4618955 C85.1033052,48.4618955 85.5510204,48.0197076 85.5510204,47.4742412 L85.5510204,4.55212104 C85.5510204,4.00665462 85.1033052,3.56446672 84.5510204,3.56446672 L4.63265306,3.56446672 C4.08036831,3.56446672 3.63265306,4.00665462 3.63265306,4.55212104 L3.63265306,47.4742412 C3.63265306,48.0197076 4.08036831,48.4618955 4.63265306,48.4618955 L84.5510204,48.4618955 L84.5510204,48.4618955 Z" id="Path"></path>
                                                <path d="M88.1836735,63.7593985 C88.7359582,63.7593985 89.1836735,63.3172106 89.1836735,62.7717442 L89.1836735,50.8901884 C89.1836735,50.344722 88.7359582,49.9025341 88.1836735,49.9025341 L1,49.9025341 C0.44771525,49.9025341 0,50.344722 0,50.8901884 L0,62.7717442 C0,63.3172106 0.44771525,63.7593985 1,63.7593985 L88.1836735,63.7593985 L88.1836735,63.7593985 Z M2,62.7717442 L2,50.8901884 L1,51.8778428 L88.1836735,51.8778428 L87.1836735,50.8901884 L87.1836735,62.7717442 L88.1836735,61.7840899 L1,61.7840899 L2,62.7717442 L2,62.7717442 Z" id="Path"></path>
                                                <path d="M60.3333333,79.205421 L61.3333333,79.205421 L61.3333333,78.2177666 L61.3333333,74.6532999 L61.3333333,73.6656456 L60.3333333,73.6656456 L28.8503401,73.6656456 L27.8503401,73.6656456 L27.8503401,74.6532999 L27.8503401,78.2177666 L27.8503401,79.205421 L28.8503401,79.205421 L60.3333333,79.205421 L60.3333333,79.205421 Z M29.8503401,78.2177666 L29.8503401,74.6532999 L28.8503401,75.6409542 L60.3333333,75.6409542 L59.3333333,74.6532999 L59.3333333,78.2177666 L60.3333333,77.2301123 L28.8503401,77.2301123 L29.8503401,78.2177666 L29.8503401,78.2177666 Z" id="Path"></path>
                                                <path d="M55.4897959,63.7593985 L54.4897959,62.7717442 L54.4897959,74.6532999 L55.4897959,73.6656456 L33.6938776,73.6656456 L34.6938776,74.6532999 L34.6938776,62.7717442 L33.6938776,63.7593985 L55.4897959,63.7593985 L55.4897959,63.7593985 Z M32.6938776,61.7840899 L32.6938776,62.7717442 L32.6938776,74.6532999 L32.6938776,75.6409542 L33.6938776,75.6409542 L55.4897959,75.6409542 L56.4897959,75.6409542 L56.4897959,74.6532999 L56.4897959,62.7717442 L56.4897959,61.7840899 L55.4897959,61.7840899 L33.6938776,61.7840899 L32.6938776,61.7840899 L32.6938776,61.7840899 Z" id="Path"></path>
                                            </g>
                                        </g>
                                    </g>
                                </g>
                            </g>
                        </g>
                    </g>
                </g>
            </g>
        </g>
    </g>
</svg>